<svg xmlns="http://www.w3.org/2000/svg" width="166" height="44" viewBox="0 0 166 44" role="img" aria-labelledby="title">
  <title id="title">Easter Egg</title>
  <defs>
    <linearGradient id="glass" x1="0" y1="0" x2="1" y2="1">
      <stop stop-color="#F7F6F2" stop-opacity="0.97"/>
      <stop offset="1" stop-color="#E9E2D6" stop-opacity="0.82"/>
    </linearGradient>
    <linearGradient id="egg" x1="0" y1="0" x2="0.8" y2="1">
      <stop stop-color="#F7F6F2"/>
      <stop offset="1" stop-color="#E9E2D6"/>
    </linearGradient>
  </defs>
  <rect x="0.75" y="0.75" width="164.5" height="42.5" rx="12" fill="url(#glass)" stroke="#C8A96A" stroke-width="1.5"/>
  <path d="M12 2h142" fill="none" stroke="#FFFFFF" stroke-linecap="round" opacity="0.72"/>
  <ellipse cx="25" cy="35.4" rx="9.2" ry="1.4" fill="#1A1A1A" opacity="0.1"/>
  <path d="M25 9.2c-5.9 0-11 10-11 17.1 0 5.4 4.5 8.5 11 8.5s11-3.1 11-8.5C36 19.2 30.9 9.2 25 9.2z" fill="url(#egg)" stroke="#E18A7A" stroke-width="1.7" stroke-linejoin="round"/>
  <ellipse cx="21" cy="19.4" rx="3.2" ry="2.3" fill="#6D7F66" opacity="0.88" transform="rotate(-20 21 19.4)"/>
  <circle cx="29.3" cy="25" r="2.6" fill="#A7C2D6"/>
  <ellipse cx="22.4" cy="29.8" rx="2.1" ry="1.5" fill="#E18A7A" opacity="0.86" transform="rotate(18 22.4 29.8)"/>
  <g fill="none" stroke="#C8A96A" stroke-linecap="round">
    <path d="M38.5 8.2v6.6M35.2 11.5h6.6" stroke-width="1.6"/>
    <path d="m36.2 9.2 4.6 4.6M40.8 9.2l-4.6 4.6" stroke-width="1" opacity="0.75"/>
  </g>
  <circle cx="41.8" cy="18.1" r="1.15" fill="#C8A96A" opacity="0.8"/>
  <text x="49" y="20.5" fill="#1A1A1A" font-family="Inter,Segoe UI,Arial,sans-serif" font-size="11.5" font-weight="700" letter-spacing="1.1">EASTER EGG</text>
  <text x="49" y="31.5" fill="#6D7F66" font-family="Inter,Segoe UI,Arial,sans-serif" font-size="7.5" font-weight="700" letter-spacing="1.65">PLAY SNAKE</text>
</svg>
